<svg xmlns="http://www.w3.org/2000/svg" viewBox="0 0 3000 597.96"><path d="M1216,360.58h51.73V326.76h-87.29a34.13,34.13,0,0,0-34.12,34.12v105.2a34.13,34.13,0,0,0,34.12,34.12h87.29V464.65H1216a34.12,34.12,0,0,1-34.12-34.13V394.7A34.12,34.12,0,0,1,1216,360.58Z" transform="translate(0 97.61)"/><path d="M1406.51,326.76v5a35.1,35.1,0,0,0-18-5h-33.15A70.29,70.29,0,0,0,1285.1,397v67.83a35.33,35.33,0,0,0,35.33,35.33h68.1a35.1,35.1,0,0,0,18-5v5h34.69V326.76Zm-17.34,129.86a8.89,8.89,0,0,1-8.9,8.89h-51.58a8.89,8.89,0,0,1-8.9-8.89V384a22.51,22.51,0,0,1,22.51-22.51h38a8.89,8.89,0,0,1,8.9,8.89Z" transform="translate(0 97.61)"/><path d="M1580,326.76v57a35.1,35.1,0,0,0-18-5h-33.15a70.29,70.29,0,0,0-70.28,70.28v15.8a35.33,35.33,0,0,0,35.33,35.33H1562a35.1,35.1,0,0,0,18-5v5h34.69V326.76Zm-17.34,129.86a8.89,8.89,0,0,1-8.9,8.89h-51.58a8.89,8.89,0,0,1-8.9-8.89V438.37a22.51,22.51,0,0,1,22.51-22.51h38a8.89,8.89,0,0,1,8.9,8.89Z" transform="translate(0 97.61)"/><path d="M1701.59,360.73h51.73V326.91H1666A34.13,34.13,0,0,0,1631.91,361v105.2A34.12,34.12,0,0,0,1666,500.35h87.29V464.8h-51.73a34.1,34.1,0,0,1-34.07-33.11h50.32V397h-50.38v-2.14A34.13,34.13,0,0,1,1701.59,360.73Z" transform="translate(0 97.61)"/><path d="M1944.31,326.76h-139a34.55,34.55,0,0,0-34.55,34.56V500.2h34.68V396A34.56,34.56,0,0,1,1840,361.45h17.48V500.2h34.68V361.45h17.48A34.56,34.56,0,0,1,1944.18,396V500.2h34.68V361.32A34.55,34.55,0,0,0,1944.31,326.76Z" transform="translate(0 97.61)"/><path d="M2221.68,326.76H2082.93v69.38h-34.56a17.48,17.48,0,0,1-17.47-17.48v-51.9h-34.69V396a34.86,34.86,0,0,0,34.86,34.86h51.86v17.32a17.36,17.36,0,0,1-17.36,17.36h-69.36V500.2H3000V326.76Z" transform="translate(0 97.61)"/><path d="M1042.4,153.32h-34.54a34.43,34.43,0,0,0,34.43-34.42V83.68a34.43,34.43,0,0,0-34.43-34.42H938.22V-97.61H903.53V49.26H0V83.94H903.53V292.07H1042.4A34.58,34.58,0,0,0,1077,257.5V187.9A34.58,34.58,0,0,0,1042.4,153.32ZM938.22,91.94H977.6c4.09,0,7.4,2.84,7.4,6.35v7.37c0,3.5-3.31,6.34-7.4,6.34H938.22ZM1005,219.46A14.31,14.31,0,0,1,990.92,234h-52.7V188h52.7A14.31,14.31,0,0,1,1005,202.55Z" transform="translate(0 97.61)"/><path d="M1164.69,49.26h-70.37V362.09A35.33,35.33,0,0,0,1059,326.76H973.82A70.29,70.29,0,0,0,903.53,397v67.83a35.33,35.33,0,0,0,35.33,35.33H1059a35.33,35.33,0,0,0,35.33-35.33v34.46H1129V292.07h108.47c16.72,0,30.28-13.28,30.28-29.67V150.27C1267.76,94.48,1221.61,49.26,1164.69,49.26ZM1041.42,457.49a8.89,8.89,0,0,1-8.9,8.89H946.25a8.89,8.89,0,0,1-8.89-8.89v-74.4a22.51,22.51,0,0,1,22.51-22.51h72.65a8.89,8.89,0,0,1,8.9,8.9ZM1205,215c0,10.5-11.18,19-25,19h-49.62V136h22.39c28.82,0,52.19,17.81,52.19,39.78Z" transform="translate(0 97.61)"/></svg>