<svg xmlns="http://www.w3.org/2000/svg" viewBox="0 0 463 300.38"><defs><style>.a{fill:#c2d2e4;}.b{fill:none;}</style></defs><path class="a" d="M117.9,243.56h21V229.82H103.45a13.87,13.87,0,0,0-13.87,13.87v42.76a13.87,13.87,0,0,0,13.87,13.87h35.48V285.87h-21A13.87,13.87,0,0,1,104,272V257.44A13.87,13.87,0,0,1,117.9,243.56Z" transform="translate(-19 0)"/><path class="a" d="M195.34,229.82v2a14.31,14.31,0,0,0-7.31-2H174.55A28.57,28.57,0,0,0,146,258.39V286a14.36,14.36,0,0,0,14.36,14.36H188a14.23,14.23,0,0,0,7.31-2v2h14.1v-70.5Zm-7.05,52.78a3.62,3.62,0,0,1-3.62,3.62h-21a3.62,3.62,0,0,1-3.62-3.62V253.07a9.15,9.15,0,0,1,9.16-9.15h15.43a3.62,3.62,0,0,1,3.62,3.61Z" transform="translate(-19 0)"/><path class="a" d="M265.84,229.82V253a14.29,14.29,0,0,0-7.31-2H245.06a28.57,28.57,0,0,0-28.57,28.57V286a14.36,14.36,0,0,0,14.36,14.36h27.68a14.2,14.2,0,0,0,7.31-2v2h14.1v-70.5Zm-7,52.78a3.62,3.62,0,0,1-3.62,3.62h-21a3.62,3.62,0,0,1-3.61-3.62v-7.41a9.16,9.16,0,0,1,9.15-9.16h15.43a3.62,3.62,0,0,1,3.62,3.62Z" transform="translate(-19 0)"/><path class="a" d="M315.29,243.63h21V229.88H300.83A13.87,13.87,0,0,0,287,243.75v42.76a13.87,13.87,0,0,0,13.87,13.87h35.48V285.93h-21a13.86,13.86,0,0,1-13.85-13.46h20.45v-14.1H301.41v-.87A13.87,13.87,0,0,1,315.29,243.63Z" transform="translate(-19 0)"/><path class="a" d="M414,229.82H357.44a14,14,0,0,0-14,14v56.46h14.1V258a14,14,0,0,1,14-14h7.11v56.4h14.1v-56.4h7.1a14,14,0,0,1,14,14v42.36H428V243.86A14,14,0,0,0,414,229.82Z" transform="translate(-19 0)"/><path class="a" d="M68.63,229.79v2a14.32,14.32,0,0,0-7.31-2H47.84a28.57,28.57,0,0,0-28.57,28.57v27.57A14.36,14.36,0,0,0,33.63,300.3H61.32a14.32,14.32,0,0,0,7.31-2v2h14.1V229.79Zm-7,52.79A3.61,3.61,0,0,1,58,286.19H37a3.61,3.61,0,0,1-3.62-3.61V253a9.15,9.15,0,0,1,9.15-9.15H58a3.62,3.62,0,0,1,3.62,3.62Z" transform="translate(-19 0)"/><path class="a" d="M481.5,230H469.84v28H455.89a7.05,7.05,0,0,1-7.05-7.05V230h-14v27.93A14.07,14.07,0,0,0,448.91,272h20.93v7a7,7,0,0,1-7,7h-28v14h35a11.66,11.66,0,0,0,11.66-11.66Z" transform="translate(-19 0)"/><path class="b" d="M126.32,126.41H61v31.26h65.31c9.63,0,17.45-4.43,17.45-9.89V136.3C143.77,130.84,136,126.41,126.32,126.41Z" transform="translate(-19 0)"/><path class="b" d="M113.11,57.78V52.16c0-2.67-3.69-4.83-8.24-4.83H61V62.62h43.86C109.42,62.62,113.11,60.45,113.11,57.78Z" transform="translate(-19 0)"/><path class="b" d="M335.15,67.56H306.54v91.95h63.39c17.62,0,31.89-8,31.89-17.85V104.88C401.82,84.26,372,67.56,335.15,67.56Z" transform="translate(-19 0)"/><path class="a" d="M482,194.82V91.71C482,45.42,434,7.05,371.19,0H260.43V221h193.7C470.22,217.7,482,207.24,482,194.82Zm-80.18-53.16c0,9.85-14.27,17.85-31.89,17.85H306.54V67.56h28.61c36.82,0,66.67,16.7,66.67,37.32Z" transform="translate(-19 0)"/><path class="b" d="M113.11,57.78V52.16c0-2.67-3.69-4.83-8.24-4.83H61V62.62h43.86C109.42,62.62,113.11,60.45,113.11,57.78Z" transform="translate(-19 0)"/><path class="b" d="M126.32,126.41H61v31.26h65.31c9.63,0,17.45-4.43,17.45-9.89V136.3C143.77,130.84,136,126.41,126.32,126.41Z" transform="translate(-19 0)"/><path class="b" d="M113.11,57.78V52.16c0-2.67-3.69-4.83-8.24-4.83H61V62.62h43.86C109.42,62.62,113.11,60.45,113.11,57.78Z" transform="translate(-19 0)"/><path class="b" d="M126.32,126.41H61v31.26h65.31c9.63,0,17.45-4.43,17.45-9.89V136.3C143.77,130.84,136,126.41,126.32,126.41Z" transform="translate(-19 0)"/><path class="a" d="M194.1,94.52H150c24.29,0,44-14.18,44-31.66V30.48C194,15.93,180.29,3.7,161.7,0H19V221H205.46c18.88-3.61,32.81-16,32.81-30.69v-64C238.27,108.75,218.49,94.52,194.1,94.52ZM61,47.33h43.86c4.55,0,8.24,2.16,8.24,4.83v5.62c0,2.67-3.69,4.84-8.24,4.84H61Zm82.76,100.45c0,5.46-7.82,9.89-17.45,9.89H61V126.41h65.31c9.63,0,17.45,4.43,17.45,9.89Z" transform="translate(-19 0)"/></svg>